<svg xmlns="http://www.w3.org/2000/svg" width="20" height="20" fill="none" viewBox="0 0 20 20"><g fill="#fff" clip-path="url(#a)"><path d="M10 1.802c2.67 0 2.987.01 4.04.058 1.09.05 2.213.298 3.008 1.093.801.801 1.042 1.913 1.092 3.006.048 1.054.058 1.371.058 4.041s-.01 2.987-.058 4.04c-.05 1.085-.303 2.218-1.093 3.008-.801.801-1.912 1.042-3.006 1.092-1.054.048-1.371.058-4.041.058s-2.987-.01-4.04-.058c-1.077-.05-2.225-.31-3.007-1.093-.798-.797-1.043-1.92-1.093-3.006-.048-1.054-.058-1.371-.058-4.041s.01-2.987.058-4.04c.05-1.08.306-2.22 1.093-3.007.8-.8 1.915-1.043 3.006-1.093C7.013 1.812 7.33 1.802 10 1.802M10 0C7.284 0 6.943.012 5.877.06 4.33.13 2.796.56 1.678 1.678.557 2.8.131 4.332.06 5.877.012 6.943 0 7.284 0 10s.012 3.057.06 4.123c.07 1.545.502 3.084 1.618 4.199 1.121 1.12 2.655 1.547 4.199 1.618 1.066.048 1.407.06 4.123.06s3.057-.012 4.123-.06c1.545-.07 3.082-.502 4.199-1.618 1.122-1.123 1.547-2.654 1.618-4.199.048-1.066.06-1.407.06-4.123s-.012-3.057-.06-4.123c-.07-1.546-.502-3.082-1.618-4.199C17.202.56 15.664.13 14.123.06 13.057.012 12.716 0 10 0"/><path d="M10.002 4.865a5.135 5.135 0 1 0 0 10.27 5.135 5.135 0 0 0 0-10.27m0 8.469a3.333 3.333 0 1 1 0-6.667 3.333 3.333 0 0 1 0 6.667M15.34 5.862a1.2 1.2 0 1 0 0-2.4 1.2 1.2 0 0 0 0 2.4"/></g><defs><clipPath id="a"><path fill="#fff" d="M0 0h20v20H0z"/></clipPath></defs></svg>