<svg xmlns="http://www.w3.org/2000/svg" width="20" height="20" fill="none" viewBox="0 0 20 20"><path fill="#fff" d="M17.041 17.042h-2.963v-4.641c0-1.107-.02-2.531-1.542-2.531-1.543 0-1.78 1.205-1.78 2.451v4.721H7.794V7.498h2.845v1.304h.04a3.12 3.12 0 0 1 2.806-1.542c3.004 0 3.557 1.976 3.557 4.546zM4.45 6.192a1.72 1.72 0 1 1 0-3.438 1.72 1.72 0 0 1 0 3.439m1.481 10.85H2.965V7.498H5.93zM18.52.002H1.475A1.46 1.46 0 0 0 0 1.442v17.114A1.46 1.46 0 0 0 1.475 20H18.52c.807.01 1.47-.636 1.481-1.443V1.442A1.463 1.463 0 0 0 18.519 0"/></svg>