<svg xmlns="http://www.w3.org/2000/svg" width="22" height="23" fill="none" viewBox="0 0 22 23"><path fill="#fff" d="M21.276 5.404v-.026c-.241-.978-.871-1.989-1.697-2.84-.966-.998-2.195-1.781-3.37-2.035h-.024a28.2 28.2 0 0 0-10.6 0h-.024C3.381.976 1.014 3.254.486 5.378v.026a20.8 20.8 0 0 0 0 8.937v.024c.377 1.514 1.686 3.105 3.195 4.067a6.1 6.1 0 0 0 1.594.738v2.369a.953.953 0 0 0 1.636.66l2.401-2.495a28.262 28.262 0 0 0 6.862-.458h.026c2.174-.475 4.542-2.753 5.066-4.877v-.024c.652-2.944.656-5.995.01-8.94m-1.9 8.499c-.352 1.385-2.148 3.109-3.577 3.426-1.857.356-3.747.51-5.638.46a.12.12 0 0 0-.098.041l-1.753 1.8-1.865 1.913a.217.217 0 0 1-.375-.15v-3.927a.135.135 0 0 0-.11-.133 3.5 3.5 0 0 1-.855-.327c-1.215-.648-2.44-1.978-2.723-3.103a18.8 18.8 0 0 1 0-8.078c.35-1.378 2.156-3.098 3.576-3.417 3.25-.622 6.59-.622 9.84 0 .788.175 1.688.775 2.392 1.511.579.6 1.022 1.29 1.186 1.913a18.8 18.8 0 0 1 0 8.071"/><path fill="#fff" d="M15.853 14.107a3.03 3.03 0 0 1-1.301 1.432q-.273.115-.563.178c-.219-.066-.427-.11-.613-.19A15.5 15.5 0 0 1 9.1 13.013q-.571-.487-1.07-1.05a13.9 13.9 0 0 1-2.046-3.121c-.261-.534-.482-1.086-.707-1.636-.205-.502.098-1.023.409-1.397a3.3 3.3 0 0 1 1.098-.819.71.71 0 0 1 .882.205c.522.587.983 1.227 1.374 1.908a.91.91 0 0 1-.255 1.228 3 3 0 0 0-.293.233.9.9 0 0 0-.22.233.64.64 0 0 0-.05.567c.395 1.086.994 1.992 1.89 2.628q.456.322.974.534c.224.122.476.184.732.18.446-.053.593-.546.904-.8a.86.86 0 0 1 1.023-.047c.331.205.65.436.97.66q.473.324.91.696a.72.72 0 0 1 .227.892M11.465 4.306h-.262c.084-.005.172 0 .262 0"/><path fill="#fff" d="M15.995 10.436c-.205 0-.305-.174-.32-.364-.026-.375-.046-.75-.097-1.123a4.706 4.706 0 0 0-3.792-3.933c-.295-.054-.596-.066-.893-.097-.188-.02-.435-.032-.476-.266a.322.322 0 0 1 .317-.364q.073-.005.147 0a5.44 5.44 0 0 1 4.5 2.455c.387.602.65 1.276.773 1.982.078.442.107.896.142 1.346a.314.314 0 0 1-.301.364"/><path fill="#fff" d="M14.885 9.48a.8.8 0 0 1-.024.18.3.3 0 0 1-.565.031.9.9 0 0 1-.03-.254A3.3 3.3 0 0 0 14 8.106a2.978 2.978 0 0 0-1.387-1.442 3.7 3.7 0 0 0-.994-.307c-.152-.025-.303-.039-.454-.06a.29.29 0 0 1-.272-.32.286.286 0 0 1 .317-.283c.6.023 1.189.177 1.724.45a3.48 3.48 0 0 1 1.524 1.506c.19.38.317.787.376 1.207q.017.082.025.165c.01.123.014.246.024.397z"/><path fill="#fff" d="M13.488 9.198a.27.27 0 0 1-.217.204h-.045a.31.31 0 0 1-.31-.204.4.4 0 0 1-.025-.105 3 3 0 0 0-.062-.409A1.2 1.2 0 0 0 12.392 8a1.2 1.2 0 0 0-.354-.172c-.162-.047-.332-.034-.491-.073a.303.303 0 0 1-.246-.35.32.32 0 0 1 .334-.254c.937.068 1.636.518 1.816 1.522q.029.14.039.282a.8.8 0 0 1-.002.244"/></svg>