<svg aria-hidden="true" style="position: absolute; width: 0; height: 0; overflow: hidden;" version="1.1" xmlns="http://www.w3.org/2000/svg" xmlns:xlink="http://www.w3.org/1999/xlink">
<defs>
<symbol id="icon-instagram" viewBox="0 0 20 20">
<g clip-path="url(#a)"><path d="M19.98 5.88c-.046-1.063-.218-1.793-.464-2.426a4.88 4.88 0 0 0-1.157-1.774 4.922 4.922 0 0 0-1.77-1.153C15.952.281 15.226.11 14.163.063 13.093.012 12.753 0 10.037 0 7.322 0 6.982.012 5.915.059 4.853.105 4.122.277 3.49.523A4.88 4.88 0 0 0 1.715 1.68 4.924 4.924 0 0 0 .563 3.45C.316 4.087.145 4.813.098 5.876c-.051 1.07-.063 1.41-.063 4.126 0 2.715.012 3.055.059 4.122.047 1.063.219 1.793.465 2.426a4.932 4.932 0 0 0 1.156 1.774c.5.508 1.106.902 1.77 1.152.637.247 1.364.419 2.426.465 1.067.047 1.407.059 4.122.059 2.716 0 3.056-.012 4.122-.059 1.063-.046 1.793-.218 2.426-.464a5.116 5.116 0 0 0 2.927-2.927c.246-.637.418-1.364.465-2.426.047-1.067.058-1.407.058-4.122s-.004-3.055-.05-4.122Zm-1.8 8.166c-.044.977-.208 1.504-.344 1.856a3.318 3.318 0 0 1-1.9 1.898c-.35.137-.882.301-1.855.344-1.055.047-1.371.059-4.04.059-2.668 0-2.989-.012-4.04-.059-.977-.043-1.504-.207-1.856-.344a3.077 3.077 0 0 1-1.148-.746 3.11 3.11 0 0 1-.747-1.148c-.136-.352-.3-.883-.343-1.856-.047-1.055-.059-1.372-.059-4.04 0-2.669.012-2.99.059-4.04.043-.977.207-1.504.343-1.856A3.04 3.04 0 0 1 3 2.965a3.105 3.105 0 0 1 1.15-.746c.35-.137.882-.3 1.855-.344 1.055-.046 1.372-.058 4.04-.058 2.672 0 2.989.012 4.04.058.977.043 1.504.207 1.856.344.433.16.828.414 1.148.746.332.325.586.715.747 1.15.136.35.3.882.343 1.855.047 1.055.059 1.371.059 4.04 0 2.668-.012 2.98-.059 4.036Z"/><path d="M10.037 4.864A5.139 5.139 0 0 0 4.9 10.002a5.139 5.139 0 1 0 5.138-5.138Zm0 8.47a3.333 3.333 0 1 1 .001-6.666 3.333 3.333 0 0 1 0 6.667ZM16.578 4.661a1.2 1.2 0 1 1-2.4 0 1.2 1.2 0 0 1 2.4 0Z"/></g>
</symbol>
<symbol id="icon-youtube" viewBox="0 0 20 20">
<path d="M19.582 5.155a2.51 2.51 0 0 0-1.769-1.78c-1.559-.42-7.813-.42-7.813-.42s-6.254 0-7.814.42a2.51 2.51 0 0 0-1.768 1.78C0 6.725 0 10 0 10s0 3.275.418 4.845c.23.866.908 1.548 1.769 1.78 1.559.42 7.813.42 7.813.42s6.254 0 7.814-.42a2.52 2.52 0 0 0 1.768-1.78C20 13.275 20 10 20 10s0-3.275-.418-4.845m-11.627 7.82v-5.95L13.182 10z"/>
</symbol>
<symbol id="icon-facebook" viewBox="0 0 20 20">
<path d="M13.331 3.32h1.826V.14a23.576 23.576 0 0 0-2.66-.14C9.865 0 8.061 1.656 8.061 4.7v2.8H5.156v3.555h2.905V20h3.562v-8.944h2.787l.443-3.555h-3.23V5.05c0-1.027.277-1.73 1.708-1.73Z"/>
</symbol>
<symbol id="icon-linkedin" viewBox="0 0 20 20">
<g clip-path="url(#a)"><path d="M19.995 20H20v-7.336c0-3.588-.772-6.352-4.967-6.352-2.017 0-3.37 1.106-3.923 2.156h-.058V6.647H7.074v13.352h4.142v-6.611c0-1.741.33-3.425 2.486-3.425 2.124 0 2.156 1.987 2.156 3.536V20h4.137ZM.33 6.647h4.147V20H.33V6.647ZM2.402 0A2.402 2.402 0 0 0 0 2.402c0 1.325 1.076 2.424 2.402 2.424 1.325 0 2.401-1.098 2.401-2.424A2.403 2.403 0 0 0 2.402 0Z"/></g>
</symbol>
<symbol id="icon-telegram" viewBox="0 0 24 24">
<path d="M2.148 11.81q7.87-3.429 10.497-4.522c4.999-2.079 6.037-2.44 6.714-2.452.15-.003.482.034.698.21.182.147.232.347.256.487s.054.459.03.708c-.27 2.847-1.443 9.754-2.04 12.942-.252 1.348-.748 1.8-1.23 1.845-1.045.096-1.838-.69-2.85-1.354-1.585-1.039-2.48-1.686-4.018-2.699-1.777-1.171-.625-1.815.388-2.867.265-.275 4.87-4.464 4.96-4.844.01-.048.021-.225-.084-.318-.105-.094-.26-.062-.373-.036q-.239.054-7.592 5.018-1.079.74-1.952.721c-.643-.014-1.88-.363-2.798-.662-1.128-.367-2.024-.56-1.946-1.183q.061-.486 1.34-.994"/>
</symbol>
<symbol id="icon-viber" viewBox="0 0 22 23">
<path d="M21.276 5.404v-.026c-.241-.978-.871-1.989-1.697-2.84-.966-.998-2.195-1.781-3.37-2.035h-.024a28.2 28.2 0 0 0-10.6 0h-.024C3.381.976 1.014 3.254.486 5.378v.026a20.8 20.8 0 0 0 0 8.937v.024c.377 1.514 1.686 3.105 3.195 4.067a6.1 6.1 0 0 0 1.594.738v2.369a.953.953 0 0 0 1.636.66l2.401-2.495a28.262 28.262 0 0 0 6.862-.458h.026c2.174-.475 4.542-2.753 5.066-4.877v-.024c.652-2.944.656-5.995.01-8.94m-1.9 8.499c-.352 1.385-2.148 3.109-3.577 3.426-1.857.356-3.747.51-5.638.46a.12.12 0 0 0-.098.041l-1.753 1.8-1.865 1.913a.217.217 0 0 1-.375-.15v-3.927a.135.135 0 0 0-.11-.133 3.5 3.5 0 0 1-.855-.327c-1.215-.648-2.44-1.978-2.723-3.103a18.8 18.8 0 0 1 0-8.078c.35-1.378 2.156-3.098 3.576-3.417 3.25-.622 6.59-.622 9.84 0 .788.175 1.688.775 2.392 1.511.579.6 1.022 1.29 1.186 1.913a18.8 18.8 0 0 1 0 8.071"/><path d="M15.853 14.107a3.03 3.03 0 0 1-1.301 1.432q-.273.115-.563.178c-.219-.066-.427-.11-.613-.19A15.5 15.5 0 0 1 9.1 13.013q-.571-.487-1.07-1.05a13.9 13.9 0 0 1-2.046-3.121c-.261-.534-.482-1.086-.707-1.636-.205-.502.098-1.023.409-1.397a3.3 3.3 0 0 1 1.098-.819.71.71 0 0 1 .882.205c.522.587.983 1.227 1.374 1.908a.91.91 0 0 1-.255 1.228 3 3 0 0 0-.293.233.9.9 0 0 0-.22.233.64.64 0 0 0-.05.567c.395 1.086.994 1.992 1.89 2.628q.456.322.974.534c.224.122.476.184.732.18.446-.053.593-.546.904-.8a.86.86 0 0 1 1.023-.047c.331.205.65.436.97.66q.473.324.91.696a.72.72 0 0 1 .227.892M11.465 4.306h-.262c.084-.005.172 0 .262 0"/><path d="M15.995 10.436c-.205 0-.305-.174-.32-.364-.026-.375-.046-.75-.097-1.123a4.706 4.706 0 0 0-3.792-3.933c-.295-.054-.596-.066-.893-.097-.188-.02-.435-.032-.476-.266a.322.322 0 0 1 .317-.364q.073-.005.147 0a5.44 5.44 0 0 1 4.5 2.455c.387.602.65 1.276.773 1.982.078.442.107.896.142 1.346a.314.314 0 0 1-.301.364"/><path d="M14.885 9.48a.8.8 0 0 1-.024.18.3.3 0 0 1-.565.031.9.9 0 0 1-.03-.254A3.3 3.3 0 0 0 14 8.106a2.978 2.978 0 0 0-1.387-1.442 3.7 3.7 0 0 0-.994-.307c-.152-.025-.303-.039-.454-.06a.29.29 0 0 1-.272-.32.286.286 0 0 1 .317-.283c.6.023 1.189.177 1.724.45a3.48 3.48 0 0 1 1.524 1.506c.19.38.317.787.376 1.207q.017.082.025.165c.01.123.014.246.024.397z"/><path d="M13.488 9.198a.27.27 0 0 1-.217.204h-.045a.31.31 0 0 1-.31-.204.4.4 0 0 1-.025-.105 3 3 0 0 0-.062-.409A1.2 1.2 0 0 0 12.392 8a1.2 1.2 0 0 0-.354-.172c-.162-.047-.332-.034-.491-.073a.303.303 0 0 1-.246-.35.32.32 0 0 1 .334-.254c.937.068 1.636.518 1.816 1.522q.029.14.039.282a.8.8 0 0 1-.002.244"/>
</symbol>
<symbol id="icon-arrow" viewBox="0 0 12 12">
<path d="M0,10.999c0-0.554,0.449-1,1.002-1l0,0h7.584L0.294,1.707c-0.391-0.391-0.391-1.024,0-1.415l0,0 c0.391-0.389,1.022-0.389,1.413,0l0,0l8.294,8.292V1h0.002c0-0.551,0.447-0.998,0.998-0.998l0,0c0.552,0,1,0.446,1,0.998l0,0v10 c0,0.268-0.104,0.519-0.292,0.706l0,0c-0.189,0.189-0.44,0.294-0.708,0.294l0,0l-10,0.002C0.449,12.001,0,11.553,0,10.999L0,10.999z"/>
</symbol>
<symbol id="icon-plus" viewBox="0 0 12 12">
<path d="M5.34,11.332v-4.67H0.666C0.298,6.662,0,6.364,0,5.995l0,0c0-0.368,0.298-0.666,0.666-0.666l0,0H5.34V0.666 C5.34,0.298,5.639,0,6.006,0l0,0c0.37,0,0.667,0.298,0.667,0.666l0,0v4.663h4.659C11.7,5.329,12,5.627,12,5.995l0,0 c0,0.37-0.3,0.667-0.668,0.667l0,0H6.673v4.67C6.673,11.7,6.375,12,6.006,12l0,0C5.639,12,5.34,11.7,5.34,11.332L5.34,11.332z"/>
</symbol>
<symbol id="icon-option" viewBox="0 0 20 11">
<path d="m9.293 10.708-8.998-9A1.002 1.002 0 0 1 1.709.292L10 8.586 18.293.292l.002.003a.993.993 0 0 1 1.412 0 .995.995 0 0 1 0 1.411l-8.998 9.001A1.02 1.02 0 0 1 10 11a.99.99 0 0 1-.707-.292"/>
</symbol>
</defs>
</svg>
